#N canvas 346 22 890 616 16;
#X obj 128 120 fiddle~ 1024 1 20 7;
#X obj 315 164 print;
#X obj -34 158 scope~ 130 130 256 3 128 -1 1 0 0 0 0 102 255 51 135
135 135 0;
#X obj 128 82 adc~ 1;
#X obj 186 560 dac~ 2;
#X obj 206 488 compressor~;
#X floatatom 313 444 5 -2 2 0 - - -;
#X obj 427 343 env~ 16384 8192;
#X floatatom 430 425 5 0 0 0 - - -;
#X obj 511 472 dbtorms;
#X floatatom 476 518 5 0 0 0 - - -;
#N canvas 247 388 842 490 shifter 1;
#X floatatom 29 97 0 0 0 0 - - -;
#X obj 92 368 *~;
#X obj 215 305 line~;
#X floatatom 247 122 0 0 0 0 - - -;
#X obj 215 279 pack 0 200;
#X obj 247 96 r window;
#X obj 29 71 r transpose;
#X obj 29 153 exp;
#X floatatom 29 179 6 0 0 0 - - -;
#X obj 29 269 /;
#X obj 156 199 * 0.001;
#X obj 324 375 line~;
#X obj 324 350 pack 0 200;
#X floatatom 324 299 0 0 0 0 - - -;
#X obj 324 273 r delay;
#X obj 92 394 +~;
#X obj 29 420 cos~;
#X obj 29 447 *~;
#X obj 29 476 +~;
#X obj 116 327 wrap~;
#X obj 261 370 *~;
#X obj 261 403 +~;
#X obj 198 430 cos~;
#X obj 198 457 *~;
#X obj 156 226 t b f;
#X floatatom 29 295 6 0 0 0 - - -;
#X obj 116 300 +~ 0.5;
#X obj 29 368 -~ 0.5;
#X obj 29 394 *~ 0.5;
#X obj 198 369 -~ 0.5;
#X obj 198 402 *~ 0.5;
#X obj 29 206 - 1;
#X obj 29 127 * 0.05776;
#X obj 29 232 * -1;
#X text 63 96 <-- transposition;
#X text 106 109 (halftones);
#X text 92 173 speed;
#X text 91 187 change;
#X text 291 121 <--window (msec);
#X text 64 262 tape head;
#X obj 29 326 phasor~;
#X obj 324 326 max 1.5;
#X text 327 232 delay;
#X text 324 250 (msec);
#X obj 247 149 max 1;
#X text 65 275 rotation freq;
#X obj 92 420 vd~ G09-del;
#X obj 261 432 vd~ G09-del;
#X obj 274 52 delwrite~ G09-del 5000;
#X obj 277 23 inlet~;
#X obj 117 482 outlet~;
#X connect 0 0 32 0;
#X connect 1 0 15 0;
#X connect 2 0 1 1;
#X connect 2 0 20 1;
#X connect 3 0 44 0;
#X connect 4 0 2 0;
#X connect 5 0 3 0;
#X connect 6 0 0 0;
#X connect 7 0 8 0;
#X connect 8 0 31 0;
#X connect 9 0 25 0;
#X connect 10 0 24 0;
#X connect 11 0 15 1;
#X connect 11 0 21 1;
#X connect 12 0 11 0;
#X connect 13 0 41 0;
#X connect 14 0 13 0;
#X connect 15 0 46 0;
#X connect 16 0 17 0;
#X connect 17 0 18 0;
#X connect 18 0 50 0;
#X connect 19 0 20 0;
#X connect 19 0 29 0;
#X connect 20 0 21 0;
#X connect 21 0 47 0;
#X connect 22 0 23 0;
#X connect 23 0 18 1;
#X connect 24 0 9 0;
#X connect 24 1 9 1;
#X connect 25 0 40 0;
#X connect 26 0 19 0;
#X connect 27 0 28 0;
#X connect 28 0 16 0;
#X connect 29 0 30 0;
#X connect 30 0 22 0;
#X connect 31 0 33 0;
#X connect 32 0 7 0;
#X connect 33 0 9 0;
#X connect 40 0 1 0;
#X connect 40 0 27 0;
#X connect 40 0 26 0;
#X connect 41 0 12 0;
#X connect 44 0 10 0;
#X connect 44 0 4 0;
#X connect 46 0 17 1;
#X connect 47 0 23 1;
#X connect 49 0 48 0;
#X restore 316 532 pd shifter;
#X obj -157 434 s transpose;
#X floatatom -159 399 5 0 0 0 - - -;
#X floatatom -31 398 5 0 0 0 - - -;
#X obj -29 433 s window;
#X connect 0 4 1 0;
#X connect 3 0 0 0;
#X connect 3 0 2 0;
#X connect 3 0 5 0;
#X connect 5 0 7 0;
#X connect 5 0 11 0;
#X connect 6 0 5 1;
#X connect 7 0 8 0;
#X connect 8 0 9 0;
#X connect 9 0 10 0;
#X connect 10 0 13 0;
#X connect 11 0 4 0;
#X connect 13 0 12 0;
#X connect 14 0 15 0;
