#N canvas 211 108 1014 683 10;
#X declare -lib net;
#X declare -lib list-abs;
#X obj 579 377 sendOSC;
#X obj 919 16 import net;
#X obj 78 226 osc/unpackOSC;
#X floatatom 122 321 5 0 0 0 - - -;
#X obj 636 378 print msg2send;
#X msg 423 343 connect 127.0.0.1 22244;
#X obj 423 318 loadbang;
#X obj 677 246 inlet;
#X obj 643 246 inlet;
#X obj 546 246 inlet;
#X obj 78 348 outlet;
#X obj 122 348 outlet;
#X obj 166 348 outlet;
#X floatatom 166 321 5 0 0 0 - - -;
#X text 76 20 a basic part of a network piece \, modeled after Tim
Perkis's "Wax Lips". it requires that an OscGroupClient be running
prior to instantiating this object. messages are received on port 22245
\, and sent to port 22244;
#X obj 78 197 udpreceive \$2;
#X text 453 17 messages are of the form [/to from note amp] where "from"
is a symbol and "note" and "amp" are numbers.;
#X obj 577 311 pack s symbol 1 2;
#X obj 610 246 inlet;
#X msg 579 343 send \$1 \$2 \$3 \$4;
#X obj 225 264 print incoming:;
#X obj 78 284 unpack s 1 2;
#X obj 78 254 osc/routeOSC \$1;
#X obj 889 44 import list-abs;
#X obj 546 276 OSCprepend /;
#X text 542 187 i use OSCprepend from the list-abs library because
[prepend /] will put a space between the / and the incoming name;
#X connect 2 0 22 0;
#X connect 3 0 11 0;
#X connect 5 0 0 0;
#X connect 6 0 5 0;
#X connect 7 0 17 3;
#X connect 8 0 17 2;
#X connect 9 0 24 0;
#X connect 13 0 12 0;
#X connect 15 0 2 0;
#X connect 17 0 19 0;
#X connect 18 0 17 1;
#X connect 19 0 0 0;
#X connect 19 0 4 0;
#X connect 21 0 10 0;
#X connect 21 1 3 0;
#X connect 21 2 13 0;
#X connect 22 0 20 0;
#X connect 22 0 21 0;
#X connect 24 0 17 0;
