#N canvas 382 199 742 409 10;
#X declare -lib ggee;
#X obj 82 266 shell;
#X obj 82 295 print shell:;
#X obj 167 295 print sheldon:;
#X obj 465 23 import ggee;
#X obj 437 25 bng 15 250 50 0 empty empty empty 17 7 0 10 -262144 -1
-1;
#X obj 15 100 inlet;
#X obj 263 295 print toshell:;
#X msg 15 150 /Users/marktrayle/hub/OscGroupClient;
#X obj 428 180 tosymbol;
#X obj 364 180 tosymbol;
#X obj 259 180 tosymbol;
#X obj 259 100 inlet;
#X obj 364 100 inlet;
#X obj 428 123 bng 15 250 50 0 empty empty empty 17 7 0 10 -262144
-1 -1;
#X obj 182 235 list trim;
#X msg 53 21 /Users/marktrayle/hub/OscGroupClient 127.0.0.1 22242 22242
22244 57120 mark pwd hub hubpwd;
#X obj 104 180 tosymbol;
#X msg 428 150 pwd;
#X msg 459 151 hub;
#X msg 489 151 hubpwd;
#X obj 485 180 tosymbol;
#X obj 542 179 tosymbol;
#X obj 182 209 pack s s 22242 22243 22244 57120 s s s s;
#X connect 0 0 1 0;
#X connect 0 1 2 0;
#X connect 4 0 3 0;
#X connect 5 0 7 0;
#X connect 7 0 16 0;
#X connect 8 0 22 7;
#X connect 9 0 22 6;
#X connect 10 0 22 1;
#X connect 11 0 10 0;
#X connect 12 0 13 0;
#X connect 12 0 9 0;
#X connect 13 0 17 0;
#X connect 13 0 18 0;
#X connect 13 0 19 0;
#X connect 14 0 6 0;
#X connect 14 0 0 0;
#X connect 15 0 0 0;
#X connect 16 0 22 0;
#X connect 17 0 8 0;
#X connect 18 0 20 0;
#X connect 19 0 21 0;
#X connect 20 0 22 8;
#X connect 21 0 22 9;
#X connect 22 0 14 0;
