#N canvas 680 88 749 635 10;
#X msg 161 144 \; table1 sinesum 512 0.1 0.1 0.2 0.3 0.5 0.8 \;;
#X floatatom 231 521 0 0 0 0 - - -;
#N canvas 159 26 495 270 output 0;
#X obj 414 196 t b;
#X obj 414 134 f;
#X obj 414 73 inlet;
#X text 421 36 mute;
#X obj 414 227 f;
#X msg 521 218 0;
#X msg 414 104 bang;
#X obj 414 166 moses 1;
#X obj 521 187 t b f;
#X obj 486 143 moses 1;
#X obj 102 181 dbtorms;
#X obj 486 113 r master-lvl;
#X obj 102 52 r master-lvl;
#X obj 414 257 s master-lvl;
#X obj 26 222 inlet~;
#X obj 244 50 inlet;
#X text 244 22 level;
#X obj 244 122 s master-lvl;
#X msg 118 80 set \$1;
#X obj 118 109 outlet;
#X msg 262 78 \; pd dsp 1;
#X obj 102 238 line~;
#X obj 26 259 *~;
#X obj 26 295 dac~;
#X obj 102 210 pack 0 50;
#X text 24 195 audio;
#X text 114 135 show level;
#X connect 0 0 4 0;
#X connect 1 0 7 0;
#X connect 2 0 6 0;
#X connect 4 0 13 0;
#X connect 5 0 13 0;
#X connect 6 0 1 0;
#X connect 7 0 0 0;
#X connect 7 1 8 0;
#X connect 8 0 5 0;
#X connect 9 1 4 1;
#X connect 10 0 24 0;
#X connect 11 0 1 1;
#X connect 11 0 9 0;
#X connect 12 0 10 0;
#X connect 12 0 18 0;
#X connect 14 0 22 0;
#X connect 15 0 17 0;
#X connect 15 0 20 0;
#X connect 18 0 19 0;
#X connect 21 0 22 1;
#X connect 22 0 23 0;
#X connect 22 0 23 1;
#X connect 24 0 21 0;
#X restore 206 542 pd output;
#X msg 257 521 MUTE;
#X floatatom 206 369 4 0 0 0 - - -;
#X obj 206 394 sig~ 100;
#X msg 220 437 set table1;
#X obj 206 476 tabosc4~ table1;
#X msg 304 437 set table2;
#X text 236 369 signal input for frequency (Hz.);
#X text 221 416 message to switch tables;
#X text 217 502 volume in dB;
#X obj 167 277 partialRamp;
#X obj 167 254 bng 15 250 50 0 empty empty empty 17 7 0 10 -262144
-1 -1;
#X msg 167 299 \; table1 sinesum \$1 \$2 \$3 \$4 \$5 \$6 \$7 \$8 \$9
;
#X msg 162 90 \; table1 sinesum 512 0.1 \;;
#X msg 161 117 \; table1 sinesum 512 0.1 0.2 0.3 0.4 0.5 0.6 0.7 0.8
0.9 \;;
#X connect 1 0 2 1;
#X connect 2 0 1 0;
#X connect 3 0 2 2;
#X connect 4 0 5 0;
#X connect 5 0 7 0;
#X connect 6 0 7 0;
#X connect 7 0 2 0;
#X connect 8 0 7 0;
#X connect 12 0 14 0;
#X connect 13 0 12 0;
