#N canvas 166 500 1030 782 10;
#X obj 416 -131 inlet;
#X obj 352 128 outlet;
#X obj 223 25 line;
#X obj 223 -20 t f b;
#X obj 273 26 line;
#X obj 273 -19 t f b;
#X obj 321 26 line;
#X obj 321 -19 t f b;
#X obj 368 26 line;
#X obj 368 -19 t f b;
#X obj 416 25 line;
#X obj 416 -20 t f b;
#X obj 464 25 line;
#X obj 464 -20 t f b;
#X obj 511 25 line;
#X obj 511 -20 t f b;
#X obj 558 25 line;
#X obj 558 -20 t f b;
#X obj 605 25 line;
#X obj 605 -20 t f b;
#X obj 352 74 pack 1 2 3 4 5 6 7 8 9;
#X msg 441 151 0 0 0.8928 0.672 0.5184 0 0 0 0.0148;
#X msg 441 128 set \$1 \$2 \$3 \$4 \$5 \$6 \$7 \$8 \$9;
#N canvas 0 22 557 392 choose 0;
#X obj 227 68 inlet;
#X obj 227 257 outlet;
#X obj 227 172 random 100;
#X obj 227 198 / 100;
#X obj 227 114 drunk 1;
#X obj 227 137 sel 0 1;
#X msg 295 173 0;
#X connect 0 0 4 0;
#X connect 2 0 3 0;
#X connect 3 0 1 0;
#X connect 4 0 5 0;
#X connect 5 0 2 0;
#X connect 5 1 6 0;
#X connect 6 0 3 0;
#X restore 174 -63 pd choose;
#N canvas 0 22 557 392 choose 0;
#X obj 227 68 inlet;
#X obj 233 257 outlet;
#X obj 232 172 random 100;
#X obj 232 198 / 100;
#X obj 232 114 drunk 1;
#X obj 232 137 sel 0 1;
#X msg 300 173 0;
#X connect 0 0 4 0;
#X connect 2 0 3 0;
#X connect 3 0 1 0;
#X connect 4 0 5 0;
#X connect 5 0 2 0;
#X connect 5 1 6 0;
#X connect 6 0 3 0;
#X restore 234 -63 pd choose;
#N canvas 0 22 557 392 choose 0;
#X obj 227 68 inlet;
#X obj 233 257 outlet;
#X obj 232 172 random 100;
#X obj 232 198 / 100;
#X obj 232 114 drunk 1;
#X obj 232 137 sel 0 1;
#X msg 300 173 0;
#X connect 0 0 4 0;
#X connect 2 0 3 0;
#X connect 3 0 1 0;
#X connect 4 0 5 0;
#X connect 5 0 2 0;
#X connect 5 1 6 0;
#X connect 6 0 3 0;
#X restore 295 -63 pd choose;
#N canvas 0 22 557 392 choose 0;
#X obj 227 68 inlet;
#X obj 233 257 outlet;
#X obj 232 172 random 100;
#X obj 232 198 / 100;
#X obj 232 114 drunk 1;
#X obj 232 137 sel 0 1;
#X msg 300 173 0;
#X connect 0 0 4 0;
#X connect 2 0 3 0;
#X connect 3 0 1 0;
#X connect 4 0 5 0;
#X connect 5 0 2 0;
#X connect 5 1 6 0;
#X connect 6 0 3 0;
#X restore 356 -62 pd choose;
#N canvas 0 22 557 392 choose 0;
#X obj 227 68 inlet;
#X obj 233 257 outlet;
#X obj 232 172 random 100;
#X obj 232 198 / 100;
#X obj 232 114 drunk 1;
#X obj 232 137 sel 0 1;
#X msg 300 173 0;
#X connect 0 0 4 0;
#X connect 2 0 3 0;
#X connect 3 0 1 0;
#X connect 4 0 5 0;
#X connect 5 0 2 0;
#X connect 5 1 6 0;
#X connect 6 0 3 0;
#X restore 416 -62 pd choose;
#N canvas 0 22 557 392 choose 0;
#X obj 227 68 inlet;
#X obj 233 257 outlet;
#X obj 232 172 random 100;
#X obj 232 198 / 100;
#X obj 232 114 drunk 1;
#X obj 232 137 sel 0 1;
#X msg 300 173 0;
#X connect 0 0 4 0;
#X connect 2 0 3 0;
#X connect 3 0 1 0;
#X connect 4 0 5 0;
#X connect 5 0 2 0;
#X connect 5 1 6 0;
#X connect 6 0 3 0;
#X restore 476 -62 pd choose;
#N canvas 0 22 557 392 choose 0;
#X obj 227 68 inlet;
#X obj 233 257 outlet;
#X obj 232 172 random 100;
#X obj 232 198 / 100;
#X obj 232 114 drunk 1;
#X obj 232 137 sel 0 1;
#X msg 300 173 0;
#X connect 0 0 4 0;
#X connect 2 0 3 0;
#X connect 3 0 1 0;
#X connect 4 0 5 0;
#X connect 5 0 2 0;
#X connect 5 1 6 0;
#X connect 6 0 3 0;
#X restore 538 -62 pd choose;
#N canvas 0 22 557 392 choose 0;
#X obj 227 68 inlet;
#X obj 233 257 outlet;
#X obj 232 172 random 100;
#X obj 232 198 / 100;
#X obj 232 114 drunk 1;
#X obj 232 137 sel 0 1;
#X msg 300 173 0;
#X connect 0 0 4 0;
#X connect 2 0 3 0;
#X connect 3 0 1 0;
#X connect 4 0 5 0;
#X connect 5 0 2 0;
#X connect 5 1 6 0;
#X connect 6 0 3 0;
#X restore 599 -61 pd choose;
#N canvas 0 22 557 392 choose 0;
#X obj 227 68 inlet;
#X obj 233 257 outlet;
#X obj 232 172 random 100;
#X obj 232 198 / 100;
#X obj 232 114 drunk 1;
#X obj 232 137 sel 0 1;
#X msg 300 173 0;
#X connect 0 0 4 0;
#X connect 2 0 3 0;
#X connect 3 0 1 0;
#X connect 4 0 5 0;
#X connect 5 0 2 0;
#X connect 5 1 6 0;
#X connect 6 0 3 0;
#X restore 659 -61 pd choose;
#X msg 244 3 1000;
#X msg 294 4 1000;
#X msg 342 4 1000;
#X msg 389 4 1000;
#X msg 437 3 1000;
#X msg 485 1 1000;
#X msg 532 3 1000;
#X msg 579 3 1000;
#X msg 626 3 1000;
#X connect 0 0 23 0;
#X connect 0 0 24 0;
#X connect 0 0 25 0;
#X connect 0 0 26 0;
#X connect 0 0 27 0;
#X connect 0 0 28 0;
#X connect 0 0 29 0;
#X connect 0 0 30 0;
#X connect 0 0 31 0;
#X connect 2 0 20 0;
#X connect 3 0 2 0;
#X connect 3 1 32 0;
#X connect 4 0 20 1;
#X connect 5 0 4 0;
#X connect 5 1 33 0;
#X connect 6 0 20 2;
#X connect 7 0 6 0;
#X connect 7 1 34 0;
#X connect 8 0 20 3;
#X connect 9 0 8 0;
#X connect 9 1 35 0;
#X connect 10 0 20 4;
#X connect 11 0 10 0;
#X connect 11 1 36 0;
#X connect 12 0 20 5;
#X connect 13 0 12 0;
#X connect 13 1 37 0;
#X connect 14 0 20 6;
#X connect 15 0 14 0;
#X connect 15 1 38 0;
#X connect 16 0 20 7;
#X connect 17 0 16 0;
#X connect 17 1 39 0;
#X connect 18 0 20 8;
#X connect 19 0 18 0;
#X connect 19 1 40 0;
#X connect 20 0 1 0;
#X connect 20 0 22 0;
#X connect 22 0 21 0;
#X connect 23 0 3 0;
#X connect 24 0 5 0;
#X connect 25 0 7 0;
#X connect 26 0 9 0;
#X connect 27 0 11 0;
#X connect 28 0 13 0;
#X connect 29 0 15 0;
#X connect 30 0 17 0;
#X connect 31 0 19 0;
#X connect 32 0 2 1;
#X connect 33 0 4 1;
#X connect 34 0 6 1;
#X connect 35 0 8 1;
#X connect 36 0 10 1;
#X connect 37 0 12 1;
#X connect 38 0 14 1;
#X connect 39 0 16 1;
#X connect 40 0 18 1;
