#N canvas 375 110 829 734 16;
#X obj 474 -9062 scope~ 98 107 256 3 128 -1 1 0 0 0 0 102 255 51 135
135 135 0;
#X obj 208 -8595 comb~ 100 0.2 0.3 0.9;
#X obj 430 -8595 reson~;
#X obj 208 -8564 *~ 0;
#X obj 430 -8564 *~ 0;
#X obj 145 -9034 fiddle~ 1024 1 20 7;
#X obj 145 -9003 route 1 2 3 4 5 6 7;
#X obj 370 -8964 vsl 24 128 0 100 0 0 empty empty empty 0 -9 0 10 -262144
-1 -1 2069 1;
#X obj 145 -8964 vsl 24 128 0 10000 0 0 empty empty empty 0 -9 0 10
-262144 -1 -1 311 1;
#X obj 171 -8964 vsl 24 128 0 10000 0 0 empty empty empty 0 -9 0 10
-262144 -1 -1 965 1;
#X obj 198 -8964 vsl 24 128 0 10000 0 0 empty empty empty 0 -9 0 10
-262144 -1 -1 0 1;
#X obj 225 -8964 vsl 24 128 0 10000 0 0 empty empty empty 0 -9 0 10
-262144 -1 -1 0 1;
#X obj 251 -8964 vsl 24 128 0 10000 0 0 empty empty empty 0 -9 0 10
-262144 -1 -1 0 1;
#X obj 278 -8964 vsl 24 128 0 10000 0 0 empty empty empty 0 -9 0 10
-262144 -1 -1 0 1;
#X obj 305 -8964 vsl 24 128 0 10000 0 0 empty empty empty 0 -9 0 10
-262144 -1 -1 0 1;
#X obj 37 -8914 bng 64 250 50 0 empty empty empty 17 7 0 10 -262144
-1 -1;
#X obj 400 -9063 adc~ 1;
#N canvas 150 261 1157 646 midicontrollers 0;
#X floatatom 80 -8780 5 0 0 0 - - -;
#X floatatom 329 -8780 5 0 0 0 - - -;
#X obj 578 -8813 maxlib/scale 0 127 0 1;
#X floatatom 577 -8780 5 0 0 0 - - -;
#X obj 80 -8846 ctlin 4;
#X obj 329 -8846 ctlin 5;
#X obj 578 -8846 ctlin 6;
#X obj 9 -8511 maxlib/scale 0 127 0 1;
#X floatatom 8 -8480 5 0 0 0 - - -;
#X obj 9 -8544 ctlin 10;
#X obj 80 -8813 maxlib/scale 0 127 0 100;
#X obj 329 -8813 maxlib/scale 0 127 0 100;
#X obj 239 -8511 maxlib/scale 0 127 0 1;
#X floatatom 238 -8480 5 0 0 0 - - -;
#X obj 239 -8544 ctlin 11;
#X obj 80 -8748 s filterGain;
#X obj 329 -8748 s filterQ;
#X obj -624 -8846 ctlin 1;
#X obj -624 -8813 maxlib/scale 0 127 0 1;
#X floatatom -624 -8780 5 0 0 0 - - -;
#X obj -392 -8813 maxlib/scale 0 127 0 1;
#X floatatom -392 -8780 5 0 0 0 - - -;
#X obj -162 -8813 maxlib/scale 0 127 0 1;
#X floatatom -162 -8780 5 0 0 0 - - -;
#X obj -392 -8846 ctlin 2;
#X obj -162 -8846 ctlin 3;
#X obj 238 -8449 s filterLvl;
#X obj 8 -8449 s combLvl;
#X obj -624 -8748 s combFeedFwd;
#X obj -392 -8748 s combFeedBk;
#X obj -162 -8748 s combGain;
#X connect 0 0 15 0;
#X connect 1 0 16 0;
#X connect 2 0 3 0;
#X connect 4 0 10 0;
#X connect 5 0 11 0;
#X connect 6 0 2 0;
#X connect 7 0 8 0;
#X connect 8 0 27 0;
#X connect 9 0 7 0;
#X connect 10 0 0 0;
#X connect 11 0 1 0;
#X connect 12 0 13 0;
#X connect 13 0 26 0;
#X connect 14 0 12 0;
#X connect 17 0 18 0;
#X connect 18 0 19 0;
#X connect 19 0 28 0;
#X connect 20 0 21 0;
#X connect 21 0 29 0;
#X connect 22 0 23 0;
#X connect 23 0 30 0;
#X connect 24 0 20 0;
#X connect 25 0 22 0;
#X restore 588 -9061 pd midicontrollers;
#X obj 350 -9034 send~ piezo;
#X obj 503 -8655 receive~ piezo;
#X obj 503 -8625 r filterGain;
#X obj 503 -8595 r filterQ;
#X obj 370 -8816 dbtorms;
#X floatatom 370 -8757 5 0 0 0 - - -;
#X obj 325 -8519 dac~ 1;
#X obj 103 -8663 receive~ piezo;
#X obj 260 -8564 r combLvl;
#X obj 330 -8663 r combFeedBk;
#X obj 321 -8693 r combFeedFwd;
#X obj 350 -8633 r combGain;
#X floatatom 148 -8816 5 0 0 0 - - -;
#X floatatom 207 -8816 5 0 0 0 - - -;
#X obj 145 -9064 receive~ piezo;
#X obj 468 -8682 maxlib/scale 0 1 30 1500;
#X obj 370 -8788 * 10;
#X obj 503 -8565 r filterLvl;
#X obj 259 -8663 * 50;
#X text 425 -8931 1) how could we use the other fiddle~ outputs?;
#X text 425 -8905 2) where would you add a controller?;
#X text 586 -9131 you'll probably want to edit this sub-patch to fit
your controller setup;
#X connect 1 0 3 0;
#X connect 2 0 4 0;
#X connect 3 0 24 0;
#X connect 4 0 24 0;
#X connect 5 1 15 0;
#X connect 5 3 7 0;
#X connect 5 4 6 0;
#X connect 6 0 8 0;
#X connect 6 0 30 0;
#X connect 6 1 9 0;
#X connect 6 1 31 0;
#X connect 6 2 10 0;
#X connect 6 3 11 0;
#X connect 6 4 12 0;
#X connect 6 5 13 0;
#X connect 6 6 14 0;
#X connect 7 0 22 0;
#X connect 16 0 0 0;
#X connect 16 0 18 0;
#X connect 19 0 2 0;
#X connect 20 0 2 1;
#X connect 21 0 2 3;
#X connect 22 0 34 0;
#X connect 23 0 33 0;
#X connect 23 0 36 0;
#X connect 25 0 1 0;
#X connect 26 0 3 1;
#X connect 27 0 1 3;
#X connect 28 0 1 2;
#X connect 29 0 1 4;
#X connect 32 0 5 0;
#X connect 33 0 2 2;
#X connect 34 0 23 0;
#X connect 35 0 4 1;
#X connect 36 0 1 1;
