#N canvas 86 22 1268 856 16;
#X declare -lib bsaylor;
#X declare -lib maxlib;
#X declare -lib ggee;
#X declare -lib net;
#X declare -lib list-abs;
#X floatatom 329 -198 5 0 127 0 - - -;
#X floatatom 398 -198 5 0 127 0 - - -;
#N canvas 0 22 450 278 (subpatch) 0;
#X array freqs 128 float 1;
#A 0 100 117 36 74 55 22 52 60 118 39 102 42 111 101 30 85 45 115 71
109 125 107 9 59 89 104 112 2 50 69 87 89 40 19 30 121 53 45 6 11 110
81 70 54 95 102 24 6 15 86 38 113 41 93 126 100 90 127 48 4 55 56 61
57 60 96 63 45 27 119 109 63 97 118 99 27 99 85 91 8 83 62 84 104 73
49 125 20 88 78 18 103 108 87 69 124 67 95 14 106 64 75 58 58.8332
116 65 16 107 36 74 98 42 127 61 123 68 115 127 105 114 0 79 37 120
4 99 122 76;
#X coords 0 127 127 0 200 140 1 0 0;
#X restore 912 -223 graph;
#X obj 294 -25 tabread freqs;
#X floatatom 398 -61 5 0 0 0 - - -;
#X obj 74 -68 popup 124 25 #ffffff players arp elliot daniel james
;
#X obj 236 -151 tosymbol;
#X obj 294 9 mtof;
#X obj 105 -198 popup 124 25 #ffffff players arp elliot daniel james
;
#X floatatom 294 -57 5 0 127 0 - - -;
#N canvas 0 22 450 278 (subpatch) 0;
#X array amps 128 float 1;
#A 0 41 62 77 48 10 90 116 45 30 117 103 91 102 97 124 86 93 65 72
79 70 87 67 101 105 6 12 98 37 88 108 60 10 31 13 0 97 127 123 125
63 11 23 69 8 14 96 114 54 47 122 0 25 56 120 83 103 39 42 44 43 80
118 111 117 58 123 71 31 110 0 0 3 112 48 99 40 19 98 113 119 46 125
109 1 94 121 32 112 112 104 126 57 125 29 28 95 112 59 89 18 77 89
62 54 103 22 92 61 84 85 66 88 30 29 70 36 106 63 76 81 73 16 107 117
78 54 39;
#X coords 0 127 127 0 200 140 1 0 0;
#X restore 916 -19 graph;
#X floatatom 294 45 5 0 0 0 - - -;
#N canvas 0 22 450 278 (subpatch) 0;
#X array players 15 float 3;
#A 0 2 0 2 1 2 3 6 3 13 7 6 11 10 8 11.6429;
#X coords 0 0 14 15 200 140 1 0 0;
#X restore 916 203 graph;
#X obj 74 8 tabread players;
#X obj 74 124 s player;
#X obj 123 -283 r player;
#X obj 166 45 print player;
#X floatatom 440 10 5 0 0 0 - - -;
#X obj 440 -24 tabread amps;
#N canvas 790 361 450 300 freq_randomizer 0;
#X obj 59 -583 uzi 128;
#X obj 59 -553 counter 0 0 127;
#X obj 136 -503 random 128;
#X obj 59 -439 tabwrite freqs;
#X obj 59 -472 pack 1 2;
#X obj 59 -607 bng 15 250 50 0 empty empty empty 17 7 0 10 -262144
-1 -1;
#X obj 136 -524 bng 15 250 50 0 empty empty empty 17 7 0 10 -262144
-1 -1;
#X obj 59 -638 inlet;
#X connect 0 0 1 0;
#X connect 1 0 4 0;
#X connect 1 0 6 0;
#X connect 2 0 4 1;
#X connect 4 0 3 0;
#X connect 5 0 0 0;
#X connect 6 0 2 0;
#X connect 7 0 5 0;
#X restore 938 -273 pd freq_randomizer;
#N canvas 333 305 450 300 amp_randomizer 0;
#X obj 59 -583 uzi 128;
#X obj 59 -553 counter 0 0 127;
#X obj 136 -503 random 128;
#X obj 59 -472 pack 1 2;
#X obj 59 -607 bng 15 250 50 0 empty empty empty 17 7 0 10 -262144
-1 -1;
#X obj 136 -524 bng 15 250 50 0 empty empty empty 17 7 0 10 -262144
-1 -1;
#X obj 59 -638 inlet;
#X obj 59 -440 tabwrite amps;
#X connect 0 0 1 0;
#X connect 1 0 3 0;
#X connect 1 0 5 0;
#X connect 2 0 3 1;
#X connect 3 0 7 0;
#X connect 4 0 0 0;
#X connect 5 0 2 0;
#X connect 6 0 4 0;
#X restore 948 -68 pd amp_randomizer;
#N canvas 560 380 450 300 player_randomizer 0;
#X obj 59 -472 pack 1 2;
#X obj 59 -607 bng 15 250 50 0 empty empty empty 17 7 0 10 -262144
-1 -1;
#X obj 136 -524 bng 15 250 50 0 empty empty empty 17 7 0 10 -262144
-1 -1;
#X obj 59 -638 inlet;
#X obj 59 -440 tabwrite players;
#X obj 59 -583 uzi 4;
#X obj 136 -503 random 4;
#X obj 59 -553 counter 0 0 3;
#X connect 0 0 4 0;
#X connect 1 0 5 0;
#X connect 2 0 6 0;
#X connect 3 0 1 0;
#X connect 5 0 7 0;
#X connect 6 0 0 1;
#X connect 7 0 0 0;
#X connect 7 0 2 0;
#X restore 946 146 pd player_randomizer;
#X obj 915 -270 bng 15 250 50 0 empty empty empty 17 7 0 10 -262144
-1 -1;
#X obj 916 -63 bng 15 250 50 0 empty empty empty 17 7 0 10 -262144
-1 -1;
#X obj 917 150 bng 15 250 50 0 empty empty empty 17 7 0 10 -262144
-1 -1;
#N canvas -9 125 842 772 mtchain 0;
#X obj 326 407 aenv~;
#X floatatom 413 231 5 0 0 0 - - -;
#X obj 326 267 delay 100;
#X obj 326 236 bng 15 250 50 0 empty empty empty 17 7 0 10 -262144
-1 -1;
#X msg 326 301 0;
#X msg 279 301 1;
#X obj 299 476 *~;
#X floatatom 337 371 5 0 0 0 - - -;
#X floatatom 426 371 5 0 0 0 - - -;
#X floatatom 504 371 5 0 0 0 - - -;
#X floatatom 603 371 5 0 0 0 - - -;
#X obj 299 515 outlet~;
#X obj 501 82 import bsaylor;
#X text 498 59 this imports aenv~;
#X obj 83 199 inlet;
#X obj 382 515 outlet;
#X obj 326 441 *~;
#X obj 83 429 reson~;
#X obj 83 337 square~;
#X obj 413 199 r delay;
#X obj 337 338 r attack;
#X obj 426 338 r decay;
#X obj 504 338 r sustain;
#X obj 603 338 r release;
#X obj 102 391 r fgain;
#X obj 246 362 r ffreq;
#X obj 219 392 *~;
#X obj 367 442 r amp;
#X obj 219 429 +~;
#X obj 181 391 r q;
#X connect 0 0 16 0;
#X connect 0 0 26 0;
#X connect 1 0 2 1;
#X connect 2 0 4 0;
#X connect 2 0 15 0;
#X connect 3 0 2 0;
#X connect 3 0 5 0;
#X connect 4 0 0 0;
#X connect 5 0 0 0;
#X connect 6 0 11 0;
#X connect 7 0 0 1;
#X connect 8 0 0 2;
#X connect 9 0 0 3;
#X connect 10 0 0 4;
#X connect 14 0 3 0;
#X connect 14 0 18 0;
#X connect 14 0 28 1;
#X connect 16 0 6 1;
#X connect 17 0 6 0;
#X connect 18 0 17 0;
#X connect 19 0 1 0;
#X connect 20 0 7 0;
#X connect 21 0 8 0;
#X connect 22 0 9 0;
#X connect 23 0 10 0;
#X connect 24 0 17 1;
#X connect 25 0 26 1;
#X connect 26 0 28 0;
#X connect 27 0 16 1;
#X connect 28 0 17 2;
#X connect 29 0 17 3;
#X restore 294 169 pd mtchain;
#X floatatom 344 122 5 0 0 0 - - -;
#X text 344 98 attack;
#X floatatom 411 122 5 0 0 0 - - -;
#X text 411 98 decay;
#X floatatom 479 122 5 0 0 0 - - -;
#X text 479 98 delay;
#X floatatom 552 122 5 0 1 0 - - -;
#X text 547 98 sustain;
#X floatatom 624 122 5 0 0 0 - - -;
#X text 619 98 release;
#X obj 294 220 dac~;
#X obj 13 -24 print from;
#X obj 391 197 bng 15 250 50 0 empty empty empty 17 7 0 10 -262144
-1 -1;
#X floatatom 132 -235 5 0 0 0 - - -;
#X msg 74 59 set \$1;
#X msg 74 91 0;
#X obj 593 -274 bng 15 250 50 0 empty empty empty 17 7 0 10 -262144
-1 -1;
#X msg 830 -243 mark;
#X text 613 -280 <- DO THIS FIRST!;
#X msg 236 -198 mark;
#X obj 329 -245 ctlin 1;
#X obj 411 -245 ctlin 2;
#X obj 224 -222 bng 15 250 50 0 empty empty empty 17 7 0 10 -262144
-1 -1;
#X msg 137 -133 arp;
#X msg 137 -162 set \$1;
#X obj 935 -346 import maxlib;
#N canvas 21 22 1356 421 mycontrollers 0;
#X obj 15 31 ctlin 3;
#X obj 15 112 outlet;
#X obj 502 112 outlet;
#X obj 502 31 ctlin 4;
#X obj 761 112 outlet;
#X obj 993 112 outlet;
#X obj 761 31 ctlin 5;
#X obj 993 31 ctlin 6;
#X obj 1227 112 outlet;
#X obj 1227 31 ctlin 7;
#X obj 15 71 maxlib/scale 0 127 0 100;
#X obj 502 71 maxlib/scale 0 127 0 1000;
#X obj 761 71 maxlib/scale 0 127 0 1000;
#X obj 993 71 maxlib/scale 0 127 0 1;
#X obj 1227 71 maxlib/scale 0 127 0 1000;
#X obj 264 31 inlet;
#X obj 264 71 maxlib/scale 0 127 0 1;
#X obj 1490 112 outlet;
#X obj 1490 31 ctlin 8;
#X obj 1753 112 outlet;
#X obj 1753 31 ctlin 9;
#X obj 1753 71 maxlib/scale 0 127 0.001 1;
#X obj 84 113 s attack;
#X obj 578 112 s decay;
#X obj 264 113 s amp;
#X obj 831 113 s delay;
#X obj 1064 113 s sustain;
#X obj 1300 112 s release;
#X obj 1559 112 s ffreq;
#X obj 1824 112 s q;
#X obj 1490 71 maxlib/scale 0 127 10 10000;
#X connect 0 0 10 0;
#X connect 3 0 11 0;
#X connect 6 0 12 0;
#X connect 7 0 13 0;
#X connect 9 0 14 0;
#X connect 10 0 1 0;
#X connect 10 0 22 0;
#X connect 11 0 2 0;
#X connect 11 0 23 0;
#X connect 12 0 4 0;
#X connect 12 0 25 0;
#X connect 13 0 5 0;
#X connect 13 0 26 0;
#X connect 14 0 8 0;
#X connect 14 0 27 0;
#X connect 15 0 16 0;
#X connect 16 0 24 0;
#X connect 18 0 30 0;
#X connect 20 0 21 0;
#X connect 21 0 19 0;
#X connect 21 0 29 0;
#X connect 30 0 17 0;
#X connect 30 0 28 0;
#X restore 440 46 pd mycontrollers;
#X msg 711 -243 172.20.121.194;
#X obj 593 -209 osc_login 172.20.121.194 mark;
#X obj 191 -105 network.2 /mark 57120;
#X msg 345 -339 options daniel elliot james lisa arp mark;
#X msg 75 -339 options arp elliot daniel james;
#X floatatom 692 122 5 0 1 0 - - -;
#X floatatom 764 122 5 0 0 0 - - -;
#X text 687 79 filter freq;
#X text 759 98 q;
#X obj 391 219 s trigger;
#X obj 122 90 r trigger;
#X connect 0 0 55 2;
#X connect 1 0 55 3;
#X connect 3 0 7 0;
#X connect 4 0 18 0;
#X connect 5 0 13 0;
#X connect 6 0 55 1;
#X connect 7 0 11 0;
#X connect 8 1 50 0;
#X connect 9 0 3 0;
#X connect 11 0 25 0;
#X connect 13 0 16 0;
#X connect 13 0 40 0;
#X connect 15 0 8 0;
#X connect 15 0 39 0;
#X connect 17 0 52 0;
#X connect 18 0 17 0;
#X connect 22 0 19 0;
#X connect 23 0 20 0;
#X connect 24 0 21 0;
#X connect 25 0 36 0;
#X connect 25 1 38 0;
#X connect 38 0 62 0;
#X connect 39 0 48 0;
#X connect 40 0 41 0;
#X connect 41 0 14 0;
#X connect 42 0 43 0;
#X connect 42 0 53 0;
#X connect 42 0 54 0;
#X connect 43 0 54 2;
#X connect 45 0 6 0;
#X connect 46 0 0 0;
#X connect 46 0 48 0;
#X connect 47 0 1 0;
#X connect 48 0 45 0;
#X connect 48 0 49 0;
#X connect 49 0 55 0;
#X connect 50 0 49 0;
#X connect 52 0 26 0;
#X connect 52 1 28 0;
#X connect 52 2 30 0;
#X connect 52 3 32 0;
#X connect 52 4 34 0;
#X connect 52 5 58 0;
#X connect 52 6 59 0;
#X connect 53 0 54 1;
#X connect 55 0 5 1;
#X connect 55 0 37 0;
#X connect 55 1 9 0;
#X connect 55 2 4 0;
#X connect 56 0 8 0;
#X connect 56 0 5 0;
#X connect 57 0 5 0;
#X connect 57 0 8 0;
#X connect 63 0 41 0;
